<mxfile host="app.diagrams.net" modified="2021-06-03T08:39:42.764Z" agent="5.0 (Windows NT 10.0; Win64; x64) AppleWebKit/537.36 (KHTML, like Gecko) Chrome/90.0.4430.93 Safari/537.36" etag="TLUA6n_hFhhgEYG_1Y9K" version="14.7.3" type="github">
  <diagram id="ubkxZIDTK3PRCi_S5mNs" name="第 1 页">
    <mxGraphModel dx="1038" dy="492" grid="1" gridSize="10" guides="1" tooltips="1" connect="1" arrows="1" fold="1" page="1" pageScale="1" pageWidth="1169" pageHeight="827" math="0" shadow="0">
      <root>
        <mxCell id="0" />
        <mxCell id="1" parent="0" />
        <mxCell id="A2XDYc5JP5vMb6sTXGcZ-9" style="edgeStyle=orthogonalEdgeStyle;rounded=0;orthogonalLoop=1;jettySize=auto;html=1;exitX=0.5;exitY=1;exitDx=0;exitDy=0;entryX=0.5;entryY=0;entryDx=0;entryDy=0;" edge="1" parent="1" source="A2XDYc5JP5vMb6sTXGcZ-1" target="A2XDYc5JP5vMb6sTXGcZ-2">
          <mxGeometry relative="1" as="geometry" />
        </mxCell>
        <mxCell id="A2XDYc5JP5vMb6sTXGcZ-10" style="edgeStyle=orthogonalEdgeStyle;rounded=0;orthogonalLoop=1;jettySize=auto;html=1;exitX=0.5;exitY=1;exitDx=0;exitDy=0;entryX=0.5;entryY=0;entryDx=0;entryDy=0;" edge="1" parent="1" source="A2XDYc5JP5vMb6sTXGcZ-1" target="A2XDYc5JP5vMb6sTXGcZ-3">
          <mxGeometry relative="1" as="geometry" />
        </mxCell>
        <mxCell id="A2XDYc5JP5vMb6sTXGcZ-11" style="edgeStyle=orthogonalEdgeStyle;rounded=0;orthogonalLoop=1;jettySize=auto;html=1;exitX=0.5;exitY=1;exitDx=0;exitDy=0;entryX=0.5;entryY=0;entryDx=0;entryDy=0;" edge="1" parent="1" source="A2XDYc5JP5vMb6sTXGcZ-1" target="A2XDYc5JP5vMb6sTXGcZ-4">
          <mxGeometry relative="1" as="geometry" />
        </mxCell>
        <mxCell id="A2XDYc5JP5vMb6sTXGcZ-12" style="edgeStyle=orthogonalEdgeStyle;rounded=0;orthogonalLoop=1;jettySize=auto;html=1;exitX=0.5;exitY=1;exitDx=0;exitDy=0;entryX=0.5;entryY=0;entryDx=0;entryDy=0;" edge="1" parent="1" source="A2XDYc5JP5vMb6sTXGcZ-1" target="A2XDYc5JP5vMb6sTXGcZ-5">
          <mxGeometry relative="1" as="geometry" />
        </mxCell>
        <mxCell id="A2XDYc5JP5vMb6sTXGcZ-13" style="edgeStyle=orthogonalEdgeStyle;rounded=0;orthogonalLoop=1;jettySize=auto;html=1;exitX=0.5;exitY=1;exitDx=0;exitDy=0;entryX=0.5;entryY=0;entryDx=0;entryDy=0;" edge="1" parent="1" source="A2XDYc5JP5vMb6sTXGcZ-1" target="A2XDYc5JP5vMb6sTXGcZ-6">
          <mxGeometry relative="1" as="geometry" />
        </mxCell>
        <mxCell id="A2XDYc5JP5vMb6sTXGcZ-14" style="edgeStyle=orthogonalEdgeStyle;rounded=0;orthogonalLoop=1;jettySize=auto;html=1;exitX=0.5;exitY=1;exitDx=0;exitDy=0;entryX=0.5;entryY=0;entryDx=0;entryDy=0;" edge="1" parent="1" source="A2XDYc5JP5vMb6sTXGcZ-1" target="A2XDYc5JP5vMb6sTXGcZ-7">
          <mxGeometry relative="1" as="geometry" />
        </mxCell>
        <mxCell id="A2XDYc5JP5vMb6sTXGcZ-1" value="主函数" style="rounded=0;whiteSpace=wrap;html=1;" vertex="1" parent="1">
          <mxGeometry x="527" y="90" width="115" height="40" as="geometry" />
        </mxCell>
        <mxCell id="A2XDYc5JP5vMb6sTXGcZ-2" value="定位信息获取子程序" style="rounded=0;whiteSpace=wrap;html=1;" vertex="1" parent="1">
          <mxGeometry x="330" y="180" width="30" height="110" as="geometry" />
        </mxCell>
        <mxCell id="A2XDYc5JP5vMb6sTXGcZ-3" value="定位信息解析子程序" style="rounded=0;whiteSpace=wrap;html=1;" vertex="1" parent="1">
          <mxGeometry x="430" y="180" width="30" height="110" as="geometry" />
        </mxCell>
        <mxCell id="A2XDYc5JP5vMb6sTXGcZ-4" value="NB-IOT模块初始化子程序" style="rounded=0;whiteSpace=wrap;html=1;" vertex="1" parent="1">
          <mxGeometry x="527" y="180" width="30" height="110" as="geometry" />
        </mxCell>
        <mxCell id="A2XDYc5JP5vMb6sTXGcZ-5" value="物联网信息交互子程序" style="rounded=0;whiteSpace=wrap;html=1;" vertex="1" parent="1">
          <mxGeometry x="612" y="180" width="30" height="110" as="geometry" />
        </mxCell>
        <mxCell id="A2XDYc5JP5vMb6sTXGcZ-6" value="显示模块子程序" style="rounded=0;whiteSpace=wrap;html=1;" vertex="1" parent="1">
          <mxGeometry x="700" y="180" width="30" height="110" as="geometry" />
        </mxCell>
        <mxCell id="A2XDYc5JP5vMb6sTXGcZ-7" value="报警模块子程序" style="rounded=0;whiteSpace=wrap;html=1;" vertex="1" parent="1">
          <mxGeometry x="780" y="180" width="30" height="110" as="geometry" />
        </mxCell>
      </root>
    </mxGraphModel>
  </diagram>
</mxfile>
